<?xml version="1.0" encoding="UTF-8"?>
<!-- Generator: Adobe Illustrator 22.0.0, SVG Export Plug-In . SVG Version: 6.00 Build 0)  -->
<svg version="1.1" id="Layer_1" xmlns="http://www.w3.org/2000/svg" xmlns:xlink="http://www.w3.org/1999/xlink" x="0px" y="0px" viewBox="0 0 512 512" style="enable-background:new 0 0 512 512;" xml:space="preserve">
<style type="text/css">
	.st0{fill:#FFFFFF;}
</style>
<title/>
<g id="icomoon-ignore">
</g>
<path class="st0" d="M496.1,435.7L374.9,332.6c-12.5-11.3-25.9-16.5-36.8-16c28.6-33.5,45.9-77,45.9-124.6C384,86,298,0,192,0  S0,86,0,192s86,192,192,192c47.5,0,91.1-17.3,124.6-45.9c-0.5,10.8,4.7,24.2,16,36.8l103.1,121.3c17.7,19.6,46.5,21.3,64.1,3.7  S515.8,453.4,496.1,435.7L496.1,435.7z M192,320c-70.7,0-128-57.3-128-128S121.3,64,192,64s128,57.3,128,128S262.7,320,192,320z"/>
</svg>